<?xml version="1.0" encoding="utf-8"?>
<svg version="1.1" id="Layer_1" xmlns="http://www.w3.org/2000/svg" xmlns:xlink="http://www.w3.org/1999/xlink" x="0px"
	y="0px" viewBox="0 0 512 512" style="enable-background:new 0 0 512 512;" xml:space="preserve">
	<style type="text/css">
		.st0 {
			fill: #FFC800;
		}
	</style>
	<path class="st0"
		d="M452.1,164.2c-11.7,18.7-25,36.5-36.1,50.4c-11.1-13.9-24.4-31.7-36.1-50.4c-17.8-28.5-27.9-53-27.9-68.2
	c0-35.3,28.7-64,64-64s64,28.7,64,64C480,111.2,469.9,135.7,452.1,164.2z M427.4,251C452.9,221.1,512,146.2,512,96c0-53-43-96-96-96
	s-96,43-96,96c0,38.7,35,91.9,62.7,128H336c-44.2,0-80,35.8-80,80s35.8,80,80,80h96c26.5,0,48,21.5,48,48s-21.5,48-48,48H166
	c-9.4,12.3-18.6,23.2-26.4,32H432c44.2,0,80-35.8,80-80s-35.8-80-80-80h-96c-26.5,0-48-21.5-48-48s21.5-48,48-48h76.9
	C418,257.1,423.6,255.4,427.4,251z M132.2,417.2c-11.7,17.8-25.1,34.5-36.2,47.4c-11.1-12.9-24.5-29.6-36.2-47.4
	C41.9,390.3,32,367,32,352c0-35.3,28.7-64,64-64s64,28.7,64,64C160,367,150.1,390.3,132.2,417.2z M124.6,480.3
	C152.9,446.7,192,392.8,192,352c0-53-43-96-96-96S0,299,0,352c0,50.5,59.8,121,85,148.4c6,6.5,16,6.5,21.9,0
	c1.6-1.7,3.3-3.6,5.1-5.6c1.8-2,3.8-4.2,5.8-6.6C120,485.7,122.2,483.1,124.6,480.3L124.6,480.3z M440,96c0-13.3-10.7-24-24-24
	s-24,10.7-24,24s10.7,24,24,24S440,109.3,440,96z M96,376c13.3,0,24-10.7,24-24s-10.7-24-24-24s-24,10.7-24,24S82.7,376,96,376z" />
</svg>